# xmcd CD database file
#
# Track frame offsets:
#	150
#	13751
#	28028
#	40500
#	54947
#
# Disc length: 927 seconds
#
# Revision: 0
# Processed by: cddbd v1.5.2PL0 Copyright (c) Steve Scherf et al.
# Submitted via: CDex 1.51
#
DISCID=30039d05
DTITLE=Stephanie Quayle - If I Was A Cowboy
DYEAR=2019
DGENRE=Country
TTITLE0=If I Was A Cowboy
TTITLE1=Evel Knievel
TTITLE2=Whatcha Drinkin 'Bout
TTITLE3=Second Rodeo
TTITLE4=Untitled
EXTD=YEAR: 2019
EXTT0=
EXTT1=
EXTT2=
EXTT3=
EXTT4=
PLAYORDER=
